Coordinates
version=1
nRows=14
nColumns=40
inDegrees=yes

Units are S.I. units (second, meters, Newtons, ...)
Angles are in degrees.

endheader
time	pelvis_tilt	pelvis_list	pelvis_rotation	pelvis_tx	pelvis_ty	pelvis_tz	hip_flexion_r	hip_adduction_r	hip_rotation_r	knee_angle_r	knee_angle_r_beta	ankle_angle_r	subtalar_angle_r	mtp_angle_r	hip_flexion_l	hip_adduction_l	hip_rotation_l	knee_angle_l	knee_angle_l_beta	ankle_angle_l	subtalar_angle_l	mtp_angle_l	lumbar_extension	lumbar_bending	lumbar_rotation	arm_flex_r	arm_add_r	arm_rot_r	elbow_flex_r	pro_sup_r	wrist_flex_r	wrist_dev_r	arm_flex_l	arm_add_l	arm_rot_l	elbow_flex_l	pro_sup_l	wrist_flex_l	wrist_dev_l
     27.89000000	     -0.07140340	     -6.17682714	     -1.03729139	      0.96047907	      0.91853038	      0.57761537	     11.50426995	      7.07861791	    -12.68256110	     27.43071418	     27.43071418	     17.30695667	     -8.54500664	     -0.04074553	     29.44570708	    -17.02142829	      0.12321101	     64.03166118	     64.03166118	     15.05738716	    -19.64708485	     24.15330186	    -11.76693634	      7.16905761	      0.29040201	     23.01975242	    -16.20876466	    -10.21199943	     69.24113424	     45.28844644	      0.00000000	      0.00000000	      5.35540942	     -8.42995082	      0.38061426	     38.37319551	     46.47110875	      0.00000000	      0.00000000
     27.90885714	     -0.07970513	     -6.09731584	     -0.41788243	      0.95879033	      0.91744932	      0.57848275	     11.49004938	      7.02611534	    -12.95010446	     27.88837248	     27.88837248	     17.94188051	     -8.96122123	      0.51105575	     30.36939279	    -16.74785357	      0.02408399	     61.35554995	     61.35554995	     15.70585725	    -19.63589925	     23.82501719	    -11.84915309	      7.05328626	      0.39692444	     25.03456389	    -16.20287142	    -10.04065612	     70.19171741	     45.26838207	      0.00000000	      0.00000000	      4.46997967	     -8.12009282	      1.94466838	     33.78472893	     46.24256631	      0.00000000	      0.00000000
     27.92771429	     -0.11480147	     -5.90195237	      0.14733394	      0.95700383	      0.91664133	      0.57905284	     11.44717852	      6.83465018	    -13.19334364	     28.22298262	     28.22298262	     18.32319451	     -9.36378315	      0.47363060	     31.07927769	    -16.20061348	     -0.08005211	     58.25976008	     58.25976008	     16.03092416	    -19.60331811	     23.64104407	    -12.01150041	      6.77278777	      0.48834337	     26.99964365	    -16.13223763	    -10.17096876	     71.48712643	     45.24028020	      0.00000000	      0.00000000	      2.60628589	     -7.97379629	      2.31415599	     32.32322778	     46.16042815	      0.00000000	      0.00000000
     27.94657143	     -0.23609718	     -5.71997248	      0.73061506	      0.95519707	      0.91609012	      0.57921044	     11.36851236	      6.63692552	    -13.51971569	     28.31965296	     28.31965296	     18.66217757	     -9.58553371	      0.48250521	     31.69732582	    -15.47668521	      0.02382644	     54.87088857	     54.87088857	     15.83904796	    -19.55595182	     23.03470622	    -12.06283525	      6.57687765	      0.51908483	     28.97463277	    -16.01376800	    -10.09871724	     72.77244689	     45.20649338	      0.00000000	      0.00000000	      0.87570744	     -7.86581733	      2.82149480	     30.53962386	     46.05770282	      0.00000000	      0.00000000
     27.96542857	     -0.51682873	     -5.58301335	      1.27976518	      0.95331460	      0.91569654	      0.57913103	     11.33572020	      6.49634427	    -13.83799473	     28.16243559	     28.16243559	     18.86648808	     -9.77719361	      0.48755525	     32.36196873	    -14.65411493	      0.37484231	     51.37719947	     51.37719947	     15.48134032	    -19.46624616	     23.05092625	    -11.93578134	      6.39655369	      1.07080302	     30.71523159	    -16.49838569	    -10.22892341	     73.59430910	     45.19279880	      0.00000000	      0.00000000	     -0.77246002	     -7.70243643	      2.99586040	     29.62149405	     46.00467000	      0.00000000	      0.00000000
     27.98428571	     -0.62018926	     -5.34823866	      1.80303144	      0.95165828	      0.91597411	      0.57880005	     11.00063426	      6.19208357	    -14.30689344	     27.88504413	     27.88504413	     19.10428078	     -9.46438611	      0.45606757	     32.38195367	    -13.78441104	      0.52327551	     47.37379781	     47.37379781	     13.56784492	    -19.34053957	     19.21954954	    -11.95759585	      6.13338026	      1.06908703	     32.50486315	    -16.50356522	     -9.35053029	     75.25004982	     45.13134944	      0.00000000	      0.00000000	     -2.09990578	     -7.76624299	      4.37454075	     27.23333122	     45.75609181	      0.00000000	      0.00000000
     28.00314286	     -0.86051736	     -5.13362037	      2.28983784	      0.95002149	      0.91639157	      0.57823946	     10.67601380	      5.93442191	    -14.74834235	     27.33802739	     27.33802739	     19.16336001	     -9.21639598	      0.26045945	     32.48788728	    -12.83794912	      0.96311208	     43.54909799	     43.54909799	     12.13321390	    -19.12366177	     17.25470443	    -11.86468281	      5.86102379	      1.40149767	     34.07039884	    -16.72794473	     -9.14420911	     76.76146760	     45.10114986	      0.00000000	      0.00000000	     -3.85800903	     -7.93794686	      5.26666878	     26.88174134	     45.56633340	      0.00000000	      0.00000000
     28.02200000	     -1.14156500	     -4.96739041	      2.76170658	      0.94852443	      0.91702277	      0.57748835	     10.25989969	      5.72838151	    -15.25603049	     26.55816872	     26.55816872	     19.15310974	     -8.75195623	      0.03539741	     32.54030427	    -11.94308805	      1.52897422	     39.88734131	     39.88734131	     10.84171951	    -18.71059260	     15.78050782	    -11.70782848	      5.63816200	      1.57616567	     35.63958389	    -16.77578780	     -8.84160756	     78.19404068	     45.06469104	      0.00000000	      0.00000000	     -5.62958821	     -8.08492001	      5.75442432	     26.65476859	     45.45122111	      0.00000000	      0.00000000
     28.04085714	     -1.38605698	     -4.80436332	      3.15785162	      0.94724372	      0.91788055	      0.57667103	      9.69791831	      5.57553013	    -15.65034210	     25.59635548	     25.59635548	     19.01455757	     -8.35782904	     -0.40070948	     32.36773427	    -11.18720711	      1.93584879	     36.30303471	     36.30303471	      9.28294404	    -18.05762155	     13.25722923	    -11.58127873	      5.38011212	      2.00584111	     37.12358828	    -17.14477721	     -8.38461072	     79.52435037	     45.03581982	      0.00000000	      0.00000000	     -7.34293364	     -8.36107238	      6.32945897	     27.06281367	     45.32661656	      0.00000000	      0.00000000
     28.05971429	     -1.56651007	     -4.71369545	      3.56439601	      0.94625083	      0.91903454	      0.57573355	      8.91859474	      5.55531463	    -16.03733933	     24.38426524	     24.38426524	     18.95508438	     -7.93845511	     -0.32862137	     32.13708427	    -10.56926398	      2.34301573	     33.17947934	     33.17947934	      8.93252397	    -16.82045096	     13.25316939	    -11.46000419	      5.14548272	      2.30257777	     38.42643791	    -17.14472603	     -8.30020302	     80.52896209	     45.01013243	      0.00000000	      0.00000000	     -8.82159503	     -8.48474234	      6.42565260	     26.74658761	     45.28711645	      0.00000000	      0.00000000
     28.07857143	     -1.91336790	     -4.71210424	      3.96467331	      0.94539276	      0.91974616	      0.57456454	      8.30455176	      5.55422559	    -16.64621252	     23.15237968	     23.15237968	     18.71247681	     -7.09306291	     -0.92115187	     32.09267039	    -10.18183840	      2.40403006	     30.41127936	     30.41127936	      8.07076649	    -15.27639930	     11.49148929	    -11.12836138	      5.08200688	      2.51971597	     39.61897864	    -17.41000082	     -7.67730114	     82.10721691	     44.96084061	      0.00000000	      0.00000000	    -10.54198121	     -8.70848179	      6.63783702	     27.55512032	     45.22546318	      0.00000000	      0.00000000
     28.09742857	     -2.07403059	     -4.70977204	      4.36370686	      0.94475401	      0.92069150	      0.57330190	      7.41955320	      5.65741688	    -17.03899090	     21.79714846	     21.79714846	     18.54097962	     -6.63607699	     -0.95864727	     31.81571905	     -9.81798082	      2.47057604	     28.04197580	     28.04197580	      7.90515114	    -13.69143407	     11.13830028	    -11.03671423	      4.95754446	      2.80185041	     40.96863666	    -17.48032079	     -7.54088409	     83.09530915	     44.93756236	      0.00000000	      0.00000000	    -11.71411652	     -8.78329979	      6.73982748	     27.65356509	     45.19316332	      0.00000000	      0.00000000
     28.11628571	     -2.30323460	     -4.72760728	      4.72041137	      0.94437044	      0.92134974	      0.57190358	      6.61838282	      5.76017393	    -17.43567146	     20.49653021	     20.49653021	     18.37452524	     -6.05747279	     -1.08130397	     31.56209422	     -9.53616836	      2.32419975	     26.01147619	     26.01147619	      7.76271080	    -12.19042847	     10.75154250	    -10.80494821	      4.82374875	      3.02507664	     42.02479283	    -17.50125065	     -7.28203275	     84.13421469	     44.90700685	      0.00000000	      0.00000000	    -12.87243330	     -8.88538201	      6.78949142	     27.91433205	     45.16850648	      0.00000000	      0.00000000
     28.13514286	     -2.75260434	     -4.80688866	      5.06958813	      0.94392492	      0.92126474	      0.57028653	      6.31442536	      5.85426788	    -17.72146438	     19.67471877	     19.67471877	     18.36160785	     -5.82223988	     -1.07197062	     31.64288783	     -9.26178855	      2.25944615	     24.47998909	     24.47998909	      7.59011032	    -11.19496539	     10.77944135	    -10.28898051	      4.74899486	      3.31949664	     43.11152360	    -17.68194455	     -7.27302874	     84.78711631	     44.89247665	      0.00000000	      0.00000000	    -13.72455671	     -8.91809094	      6.79468791	     27.88455888	     45.15431398	      0.00000000	      0.00000000
